<svg viewBox="0 0 153 239" fill="none" xmlns="http://www.w3.org/2000/svg">
<path d="M41.3912 85.5363C41.3912 85.6049 41.357 86.5314 41.6127 89.7842C41.7991 92.1562 42.5172 95.9506 43.1926 99.0589C43.8679 102.167 44.5852 104.464 45.7402 107.498C46.8953 110.532 48.4664 114.234 49.6856 116.775C50.9049 119.317 51.7246 120.585 52.8299 121.924C53.9353 123.263 55.3015 124.634 56.2786 125.546C57.7539 126.923 58.775 127.464 60.1132 128.153C61.058 128.638 62.4761 129.526 63.5566 130.122C65.2924 131.079 66.4339 131.447 67.3111 131.688C69.6111 132.322 71.5064 132.729 73.2018 133.072C74.5897 133.381 77.0489 133.964 78.4523 134.315C79.8558 134.667 80.129 134.77 80.4105 134.772" stroke="black" stroke-linecap="round"/>
<path d="M117.049 84.9131C117.049 84.9474 117.049 84.9817 116.998 87.7073C116.947 90.4329 116.844 95.8488 116.775 98.7588C116.699 101.91 116.635 102.43 116.465 104.063C116.322 105.424 115.952 107.854 115.725 109.297C115.437 111.123 115.051 112.259 114.62 113.521C114.356 114.295 113.912 115.031 113.191 116.478C112.047 118.777 111.083 120.332 110.431 121.312C109.068 123.361 108.253 125.04 108.029 125.489C107.825 125.901 107.255 126.389 106.566 126.994C104.835 128.515 101.769 129.265 101.044 129.594C100.342 129.914 99.9741 130.719 99.2004 131.307C97.5097 132.591 96.4903 132.416 95.6633 132.745C94.5339 133.194 93.938 133.523 92.9387 133.818C90.8745 134.428 89.0383 134.876 88.4685 134.962C87.6998 135.078 84.8838 135.083 83.2076 134.997C82.8635 134.98 82.5509 134.945 82.2756 134.876C82.1369 134.841 82.0003 134.807 81.8596 134.772" stroke="black" stroke-linecap="round"/>
<path d="M84.4086 43.6817C84.8981 43.6817 86.4967 43.6817 88.7201 43.7124C89.5973 43.7431 89.9645 43.8045 91.4693 43.8362C92.9742 43.8678 95.6057 43.8678 98.3168 43.8678" stroke="black" stroke-linecap="round"/>
<path d="M92.7634 41.7707C92.7634 42.9623 92.7634 46.2148 92.8906 50.9787C93.0659 57.54 94.2181 60.7645 94.7745 62.3559C95.0255 63.0741 95.8397 65.2241 97.8444 69.2516C100.382 74.3511 103.208 77.2745 104.702 78.3023C107.961 80.5433 109.546 81.7444 111.346 83.0766C114.478 85.3946 120.324 87.3311 122.571 88.1101C122.915 88.1977 123.254 88.1977 123.556 88.3254C123.858 88.4531 124.113 88.7084 124.889 88.9715" stroke="black" stroke-linecap="round"/>
<path d="M82.4832 40.997C82.4832 41.3375 82.4832 43.4705 82.144 47.3304C81.4762 54.9285 78.6333 59.2996 77.604 61.7086C76.1012 65.2258 71.0106 68.9306 67.7608 72.5365C66.2424 74.2212 64.9299 75.2963 63.0461 76.9702C59.8215 79.8356 57.9035 80.883 56.4463 82.517C53.5995 85.7091 46.1893 89.0439 43.6809 89.788C42.9973 89.9157 42.3086 90.0885 40.1407 90.2174C38.3122 90.2613 35.0045 90.2613 31.5967 90.2613" stroke="black" stroke-linecap="round"/>
<path d="M88.3253 2.06647C91.0027 2.06647 98.0689 2.43632 101.344 3.41699C102.991 3.91013 108.382 6.33938 115.958 10.6277C119.196 12.4608 120.862 14.1763 123.606 17.2976C126.35 20.419 130.036 25.0421 132.026 27.6087C134.266 30.4959 135.036 32.0357 136.566 35.2425C137.546 37.2967 138.556 40.391 139.541 44.2282C140.525 48.0654 141.354 52.5961 141.965 56.6869C142.577 60.7777 142.945 64.2913 143.273 71.0019C143.601 77.7124 143.878 87.5135 143.928 94.7817C144.009 106.489 143.512 111.431 143.372 112.222C143.219 113.094 143.141 114.877 142.861 118.965C143.043 131.041 143.788 133.465 144.439 135.43C144.626 135.9 144.81 136.362 145 137.399" stroke="black" stroke-linecap="round"/>
<path d="M88.7321 2.04478C88.5333 2.04478 81.672 1.94503 69.7914 2.04328C61.3613 2.11299 55.9229 3.85242 51.9652 5.20814C44.8293 7.65259 40.9566 11.9112 38.291 13.9274C36.3639 15.385 34.5231 17.3522 33.0668 18.9664C31.6434 20.5442 30.21 22.2914 28.5986 24.1535C26.77 26.2665 25.8908 30.1386 23.7358 34.2662C21.2851 38.9601 19.5597 42.8434 18.7616 45.6002C16.4042 53.7423 15.2466 55.6389 13.7904 61.0678C13.2152 63.2121 12.2347 66.1068 11.3311 69.6797C10.7681 71.9061 10.8251 73.2768 10.4245 83.5589C10.0436 93.3368 10.0239 112.395 9.82212 122.709C9.5707 135.558 8.42157 137.556 7.36288 139.224C7.11138 139.579 6.81319 139.878 6.51049 140.282C6.20779 140.685 5.9096 141.184 5 142" stroke="black" stroke-linecap="round"/>
<ellipse cx="100.674" cy="94.2384" rx="6.02628" ry="7.55998" fill="black"/>
<ellipse cx="64.5167" cy="94.2384" rx="6.02628" ry="7.55998" fill="black"/>
<path d="M84.0368 103.116C84.0368 104.993 83.9293 107.693 83.6587 108.02C83.2807 108.131 82.9156 108.167 82.6266 108.222C82.481 108.241 82.3376 108.241 82.1899 108.35" stroke="black" stroke-linecap="round"/>
<path d="M73.281 119.907C73.4244 119.907 75.1116 120.231 77.8967 120.83C79.7705 121.232 81.8497 121.579 84.273 121.579C87.4134 121.58 89.3211 120.271 89.9007 119.855C90.4401 119.476 91.0235 119.145 91.5113 118.946C91.7481 118.854 91.9633 118.782 92.1849 118.708" stroke="black" stroke-linecap="round"/>
<path d="M70.0475 133.003C70.2036 133.864 70.8325 137.004 71.2285 139.3C71.7782 142.488 71.6222 146.154 71.6636 152.367C71.5466 153.961 71.3881 154.672 71.2699 155.459C71.2297 155.855 71.2297 156.245 71.2297 156.647" stroke="black" stroke-linecap="round"/>
<path d="M62.718 165.868C66.3213 166.414 72.0052 167.679 73.8636 167.798C74.7725 167.857 78.5262 167.996 84.6227 167.762C92.83 167.447 94.7883 166.029 98.7191 164.966C99.6755 164.688 100.222 164.454 100.659 164.255C101.096 164.057 101.409 163.901 101.73 163.031" stroke="black" stroke-linecap="round"/>
<path d="M60.1172 162.794C60.5073 163.265 62.0796 164.52 63.5006 165.196C65.2229 166.016 66.8887 166.104 69.5948 166.497C74.5033 167.209 78.1621 166.499 79.6493 166.381C85.3943 165.924 87.142 166.104 88.7202 165.712C92.0363 164.887 97.7769 164.213 99.361 163.781C99.99 163.584 100.702 163.347 101.605 163.111C102.118 163.031 102.742 163.031 103.385 163.031" stroke="black" stroke-linecap="round"/>
<path d="M105.513 160.43C107.003 161.763 109.367 163.811 112.077 165.66C119.589 170.786 121.506 172.795 123.514 174.727C125.005 176.161 129.436 179.87 133.757 184.571C135.342 186.296 136.009 188.083 137.386 190.093C140.639 194.84 142 200.066 142.631 201.329C143.185 202.747 143.343 204.322 143.578 205.663C143.658 206.057 143.736 206.526 143.816 207.481" stroke="black" stroke-linecap="round"/>
<path d="M55.3884 162.794C56.5683 167.433 57.0435 170.587 57.436 174.286C57.5164 175.708 57.6724 177.519 57.9088 180.854C57.9892 182.941 57.9892 185.828 58.2257 189.039" stroke="black" stroke-linecap="round"/>
<path d="M108.587 163.267C108.587 163.891 108.587 164.515 108.626 168.933C108.665 173.351 108.743 181.544 108.823 189.984" stroke="black" stroke-linecap="round"/>
<path d="M125.61 176.744C125.298 179.241 124.669 183.57 123.882 188.375C123.38 191.441 123.009 197.186 123.402 202.345C123.583 204.724 124.579 208.006 124.94 212C124.979 212.756 125.057 213.302 125.097 213.739C125.137 214.177 125.137 214.489 125.137 214.81" stroke="black" stroke-linecap="round"/>
<path d="M57.0435 188.566C62.6613 189.502 66.1794 190.062 67.3202 190.181C68.223 190.274 70.8136 190.455 76.2304 190.81C83.6609 191.296 88.4069 190.852 89.154 190.734C90.5229 190.517 92.7313 190.301 94.8664 190.182C96.845 190.071 99.9758 189.672 102.59 189.473C106.277 189.197 111.5 188.961 111.856 188.725C111.899 188.568 111.665 188.334 111.424 188.093" stroke="black" stroke-linecap="round"/>
<path d="M110.242 191.167C110.79 192.266 112.048 193.526 113.703 195.062C114.381 195.69 114.968 196.129 115.791 196.328C119.217 194.645 121.742 192.117 122.691 191.131C122.851 190.854 122.929 190.542 123.246 189.748" stroke="black" stroke-linecap="round"/>
<path d="M44.0394 189.984C44.3515 190.767 45.7654 192.656 47.8543 194.745C49.5209 196.412 51.9955 197.392 52.7427 197.51C53.0975 197.566 53.4118 197.55 53.5726 197.16C54.6082 194.647 54.9912 191.966 56.3673 189.56C57.2704 188.419 58.0649 187.466 58.7328 186.68C59.0886 186.284 59.4788 185.894 59.8807 185.492" stroke="black" stroke-linecap="round"/>
<circle cx="116.5" cy="190.5" r="2.5" fill="black"/>
<circle cx="51.5" cy="189.5" r="2.5" fill="black"/>
<path d="M5.48124 141.5C4.65324 143.413 4.01308 144.689 2.99437 146.222C2.67333 146.608 2.35708 146.924 2.19417 147.277C2.03125 147.629 2.03125 148.009 2.03125 148.4" stroke="black" stroke-linecap="round"/>
<path d="M145.182 137.974C145.182 139.765 145.945 143.09 147.807 145.797C149.777 148.661 150.953 157.804 151.091 166.457C151.142 169.602 146.739 172.872 143.846 176.289C140.437 179.444 138.388 180.722 135.628 181.818C134.917 182.013 134.282 182.14 132.471 182.656" stroke="black" stroke-linecap="round"/>
<path d="M1.95674 146.825C1.76254 149.677 1.23878 155.707 1.13971 158.389C1.04068 161.07 1.10538 164.731 1.53008 166.533C2.07155 168.83 3.77324 173.146 5.80651 177.282C7.06394 179.839 10.437 182.382 14.4486 184.799C18.3955 186.309 21.5616 186.972 23.7155 187.168C24.7042 187.235 25.481 187.235 26.2814 187.235" stroke="black" stroke-linecap="round"/>
<path d="M74.0082 81.2766C72.256 80.9381 68.7157 80.2509 66.0216 80.109C60.9684 80.08 57.0896 80.1364 55.9819 80.2219C55.3818 80.2509 54.7049 80.2509 53.6655 80.4219" stroke="black" stroke-linecap="round"/>
<path d="M91.103 80.5928C91.7252 80.3672 93.2056 79.7962 94.3749 79.2842C94.9934 79.0134 95.9408 78.9415 99.0238 78.7705C101.54 78.631 105.999 78.7124 108.436 78.7406C110.873 78.7688 111.155 78.8252 111.413 78.8825C111.671 78.9397 111.897 78.9962 112.3 79.3962" stroke="black" stroke-linecap="round"/>
<path d="M92.4007 164.958C92.7982 164.922 93.1956 164.886 94.9 164.524C96.6043 164.162 99.6034 163.475 101.239 163.086C103.622 162.518 104.842 162.148 105.919 161.893C106.23 161.82 106.592 161.748 106.85 161.674C107.108 161.601 107.253 161.529 107.73 161.454" stroke="black" stroke-linecap="round"/>
<path d="M58.6755 161.345C59.5427 163.079 60.134 164.117 60.4253 164.426C60.7165 164.772 61.3713 165.356 62.2101 165.976C62.5429 166.199 62.6875 166.235 62.9459 166.272" stroke="black" stroke-linecap="round"/>
<path d="M70.6434 157.323C69.9582 157.323 67.6361 157.827 65.9061 158.809C61.937 161.062 61.2265 161.105 60.1179 161.721C59.3031 162.174 58.4636 162.377 56.846 163.085C55.7653 163.557 54.9348 164.339 53.771 164.977C52.5314 165.656 51.4779 166.233 50.9498 166.596C50.589 166.844 49.8793 167.429 48.5579 168.769C46.5387 170.817 45.0748 172.125 44.6405 172.631C43.9417 173.447 42.9328 174.413 41.5923 175.735C40.7775 176.538 39.7477 177.669 38.7776 178.874C37.8076 180.079 36.9433 181.34 35.904 183.483C34.8646 185.627 33.6763 188.616 33.0102 190.245C32.0102 192.692 31.7624 193.947 31.2916 195.448C30.338 198.488 29.616 200.75 29.4164 201.185C29.0676 201.945 29.0344 202.784 28.8517 203.876C28.8151 204.132 28.7791 204.348 28.7606 204.532C28.742 204.715 28.742 204.859 28.742 205.007" stroke="black" stroke-linecap="round"/>
<path d="M28.5238 204.762C28.5238 205.087 28.3798 205.886 28.2696 206.542C28.132 207.36 27.8342 208.284 27.724 209.106C27.6328 209.786 27.0354 210.685 26.7425 211.814C26.3425 212.725 26.0872 213.416 26.0326 213.87C26.0141 214.072 26.0141 214.216 25.905 214.364" stroke="black" stroke-linecap="round"/>
<path d="M91.5917 134.675C91.5917 135.476 91.8442 138.106 92.0374 140.046C92.2031 141.709 92.6095 143.126 92.7816 144.512C92.9285 145.694 93.163 146.363 93.2708 147.255C93.3703 148.08 93.7165 149.082 94.2044 150.717C94.5251 151.793 94.7369 152.824 94.9071 153.548C95.1195 154.271 95.4587 155.12 95.6934 155.95C95.7572 156.142 95.8414 156.311 95.9281 156.612" stroke="black" stroke-linecap="round"/>
<path d="M95.9282 156.612C96.4766 156.738 97.6678 157.163 98.4752 157.566C99.813 158.235 101.443 158.775 102.664 159.268C103.35 159.545 104.297 159.841 105.109 160.161C105.832 160.395 106.554 160.776 107.084 161.116C107.32 161.245 107.489 161.288 107.662 161.331" stroke="black" stroke-linecap="round"/>
<path d="M55.5372 164.291C55.6314 164.623 55.9171 165.383 56.6763 166.619C57.529 168.008 58.1053 168.762 58.7959 169.573C59.4405 170.331 60.4363 171.047 61.3662 171.811C62.1584 172.463 63.1987 172.907 63.985 173.17C64.9991 173.509 66.0553 173.764 67.4322 173.955C69.0023 174.174 71.7072 174.48 74.7738 174.622C76.9554 174.723 78.1018 175.051 80.9106 175.052C83.437 175.052 88.1972 174.864 91.4273 174.65C96.2281 174.331 98.0512 173.767 98.6204 173.483C100.216 172.686 101.426 171.533 102.88 170.509C105.191 169.151 106.24 168.105 107.334 166.322C107.528 165.913 107.528 165.677 107.528 165.434" stroke="black" stroke-linecap="round"/>
<path d="M41.9042 176.355C43.1048 187.024 43.369 188.221 43.8702 191.051C44.1613 192.695 44.4375 193.628 45.0338 197.032C45.5815 200.16 46.2905 206.182 46.7317 209.41C47.1729 212.637 47.2389 212.902 47.273 213.962C47.307 215.023 47.307 216.872 47.307 218.776" stroke="black" stroke-linecap="round"/>
<path d="M47.9072 218.776C47.9072 218.908 47.9072 221.288 47.8412 224.922C47.7752 226.244 47.6431 226.508 47.6081 228.13C47.5731 229.752 47.6391 232.724 47.7071 235.785" stroke="black" stroke-linecap="round"/>
<path d="M125.747 214.174C125.747 214.24 125.747 214.306 125.747 216.883C125.747 219.459 125.747 224.543 125.78 227.328C125.879 230.442 125.947 231.377 125.98 232.409C126.013 232.848 126.079 233.112 126.147 233.984" stroke="black" stroke-linecap="round"/>
<path d="M142.955 204.569C142.955 205.1 143.748 209.864 144.189 213.765C144.324 214.959 144.356 219.141 144.29 224.675C144.092 226.909 143.956 227.709 143.725 228.014C143.494 227.791 143.031 226.801 142.555 225.78" stroke="black" stroke-linecap="round"/>
<path d="M26.714 211.234C26.714 211.687 26.2053 214.464 25.4061 218.488C25.0453 220.304 25.114 223.144 25.3419 227.11C25.5196 230.205 26.0836 233.035 26.2566 234.954C26.3132 235.329 26.4262 235.611 26.4845 235.87C26.5427 236.129 26.5427 236.355 26.5427 236.588" stroke="black" stroke-linecap="round"/>
<path d="M66.2858 211.92C66.2858 212.259 66.3989 215.939 66.5985 221.39C66.7137 224.537 67.0259 226.7 67.6537 228.303C67.9145 228.968 69.3573 230.013 72.5128 231.749C74.4257 232.802 77.1946 233.768 79.3274 234.519C82.93 235.666 84.727 236.13 85.2683 236.244C85.527 236.302 85.7531 236.358 86.1574 236.245" stroke="black" stroke-linecap="round"/>
<path d="M103.802 212.434C103.802 213.398 104.028 215.565 104.77 220.068C105.331 223.473 104.72 227.615 103.891 228.761C102.908 230.12 101.695 230.986 98.7612 233.21C96.0248 235.284 93.9278 235.557 92.8143 235.958C90.9245 236.64 88.2781 237.383 86.7064 237.758C86.2207 237.787 85.5989 237.787 85.1937 237.702C84.7886 237.617 84.619 237.448 84.4443 237.102" stroke="black" stroke-linecap="round"/>
<path d="M66.2858 211.92C66.9094 211.92 70.315 212.485 75.5878 212.805C78.783 212.999 84.7801 212.495 88.0083 212.351C92.3193 212.091 93.861 212.034 96.0169 211.949C97.664 211.92 100.434 211.92 103.288 211.92" stroke="black" stroke-linecap="round"/>
<path d="M92.8408 44.9436C92.8408 45.7739 92.9508 46.8843 93.1459 48.3823C93.3983 50.3207 93.6177 51.2192 93.8403 52.4137C94.0632 53.6099 94.3946 54.7204 94.5355 55.6382C94.7044 56.7382 95.0082 58.0516 95.1741 59.1119C95.3225 60.0605 95.4517 61.166 95.6743 62.2514C95.8776 63.2432 96.3953 64.5539 96.6746 65.6142C96.9121 66.5161 97.2857 67.3915 97.785 68.7245C98.181 69.7816 98.9496 70.9995 99.7015 72.1165C100.372 73.1133 101.284 73.8938 102.312 74.95C103.233 75.8956 104.118 76.4514 105.424 77.3959C106.408 78.1081 107.176 78.7855 108.175 79.5917C109.305 80.5026 110.454 81.3431 111.537 82.2584C112.886 83.3973 114.455 84.1208 115.4 84.6226C116.489 85.2003 118.006 85.5646 119.29 86.0123C120.803 86.5397 121.791 86.9017 122.543 87.4286C122.738 87.5686 122.958 87.6787 123.181 87.7904C123.405 87.9021 123.625 88.0121 124.018 87.9588" stroke="black" stroke-width="3" stroke-linecap="round"/>
<path d="M117.349 87.4586C117.459 88.1205 117.903 89.676 118.071 90.9548C118.413 93.5482 118.13 97.5655 117.823 98.9851C117.527 100.352 117.296 101.237 117.155 102.431C117.027 103.519 116.906 104.625 116.572 105.767C116.265 106.819 116.072 108.183 115.711 109.295C115.379 110.319 115.185 111.35 114.933 112.352C114.625 113.575 114.018 114.518 112.271 118.841C111.503 120.74 110.96 121.744 110.349 122.634C109.744 123.516 109.016 124.575 108.21 125.635C107.552 126.501 106.959 127.246 106.182 127.804C105.392 128.373 104.572 128.86 103.599 129.332C102.31 129.959 101.294 130.47 100.319 130.972C99.322 131.486 98.4027 131.861 97.3465 132.14C96.2376 132.433 95.2349 132.751 94.3446 133.001C93.3701 133.275 92.2906 133.585 91.2052 133.835C90.193 134.068 89.2328 134.418 86.4443 134.614C84.3277 134.762 80.3063 134.642 78.0997 134.614C75.0535 134.576 73.9508 134.198 72.5886 133.588C71.6754 133.179 70.5062 133.141 69.5025 132.975C68.5971 132.826 67.7252 132.641 66.5581 132.337C65.6111 132.086 64.7242 131.754 63.8338 131.447C63.6104 131.364 63.3904 131.254 62.9969 130.974" stroke="black" stroke-width="3" stroke-linecap="round"/>
<path d="M40.3222 90.1262C40.4873 90.678 41.0425 92.0102 41.3492 92.9572C41.6454 93.8714 42.0428 94.7345 42.3221 95.7631C42.5873 96.7403 42.8231 97.9556 43.1274 98.9593C43.3957 99.8445 43.6 100.847 43.8501 101.821C44.1214 102.878 44.4337 103.738 44.6837 104.794C44.9576 105.95 45.434 107.125 45.8225 108.157C46.2179 109.206 46.6011 110.183 47.0446 111.379C47.608 112.897 47.9349 113.741 48.4617 114.908C48.9279 115.941 49.5455 116.909 50.129 118.076C50.6356 119.089 51.2127 120.077 51.7963 120.967C52.3758 121.851 52.9333 122.911 53.7961 123.774C54.8223 124.8 56.4879 126.466 58.3219 128.3C59.3551 129.333 60.2692 129.86 61.132 130.194C61.493 130.47 62.0482 130.806 62.7418 131.111C63.0502 131.251 63.2703 131.361 63.6638 131.474" stroke="black" stroke-width="3" stroke-linecap="round"/>
<path d="M84.0043 102.464C84.0043 102.794 84.0043 105.055 83.8667 108.168C83.7292 109.19 83.4541 109.08 83.2023 108.968C82.9506 108.856 82.7305 108.746 82.1703 108.466" stroke="black" stroke-width="3" stroke-linecap="round"/>
<path d="M72.1667 120.137C72.5535 120.137 73.3305 120.467 74.856 120.664C75.9511 120.806 77.3819 120.97 78.5265 121.109C79.5519 121.233 81.5434 121.304 84.1576 121.442C89.5596 121.361 90.2265 121.027 90.6149 120.75C90.7833 120.584 90.8934 120.364 91.0067 120.137" stroke="black" stroke-width="3" stroke-linecap="round"/>
<path d="M91.0068 80.6228C91.667 80.5128 93.3826 80.181 97.1998 79.7642C99.6311 79.4987 103.108 79.6225 105.003 79.595C108.501 79.4558 111.287 79.5658 112.316 79.7884C112.568 79.8442 112.788 79.8992 113.181 80.1226" stroke="black" stroke-width="3" stroke-linecap="round"/>
<path d="M72.6669 81.4565C72.2801 81.4565 71.3932 81.2364 70.5028 81.0405C68.9864 80.7068 66.6715 80.4027 65.5853 80.2068C64.8942 79.9593 63.9472 79.6792 61.6281 79.5124C59.8591 79.4557 56.888 79.4557 53.827 79.4557" stroke="black" stroke-width="3" stroke-linecap="round"/>
<path d="M82.5038 41.6091C82.5038 43.9232 82.2837 48.4948 81.9219 50.0195C80.987 53.9592 80.6164 55.7707 80.2271 57.3588C79.7937 59.1266 78.7824 59.8322 78.0605 60.9175C77.4656 61.812 76.2882 63.1633 75.4754 64.3913C74.9216 65.2281 74.0041 65.7809 73.3364 67.1681C72.8263 68.2276 72.1701 69.0587 71.4473 70.2533C70.7017 71.4858 69.7259 72.1165 68.8081 72.8117C67.4905 73.8098 66.0046 75.3376 65.0843 76.3121C63.8435 77.626 62.4467 78.8956 61.3338 79.8967C60.3806 80.7543 59.3889 81.2864 58.3602 82.2034C57.4671 82.9995 56.3879 83.6772 55.4976 84.2608C54.5513 84.881 53.2768 85.4545 51.888 86.0389C50.0628 86.8069 48.7785 87.5653 46.9696 88.4006C45.9025 88.8933 44.8838 89.0691 43.8276 89.4576C42.7697 89.8477 41.9928 90.0145 41.3276 90.0978C40.9924 90.1262 40.6623 90.1262 40.3222 90.1262" stroke="black" stroke-width="3" stroke-linecap="round"/>
<path d="M83.0039 42.4427C84.3861 42.8278 86.3884 43.7198 88.0549 43.749C89.2261 43.6098 89.893 43.5547 90.6391 43.4714C91.1651 43.443 91.9904 43.443 92.8407 43.443" stroke="black" stroke-width="3" stroke-linecap="round"/>
<path d="M78.6855 3.14795C75.8172 3.14795 70.4338 3.35238 68.2656 3.50881C66.2899 3.65133 64.2388 3.97187 61.6602 4.84846C58.8022 5.82002 56.1854 5.62593 54.2743 5.93413C52.5141 6.21798 50.7153 7.06935 48.9048 7.84217C46.7166 8.77625 44.5203 9.9562 42.761 10.8885C41.1269 11.7545 39.459 12.7439 37.8561 13.9845C36.3246 15.1697 35.0173 16.9751 33.4685 18.3209C31.7819 19.7866 29.5471 21.0018 27.3789 24.0946C25.4627 26.8279 24.6903 29.2597 24.0692 31.019C23.3615 33.0241 22.6212 34.9404 22.0559 36.5945C21.5001 38.2206 20.9733 40.1008 20.4545 42.1173C19.9858 43.939 19.3193 45.7816 18.5975 47.4356C17.8907 49.0555 17.5661 50.942 17.0984 52.7014C16.6715 54.3069 16.3271 56.0033 15.6023 57.6573C14.8865 59.2907 14.6731 61.269 14.2084 62.9741C13.6754 64.9302 12.9199 66.7391 12.6581 68.7556C12.4336 70.4855 11.8853 72.3146 11.4718 74.0739C11.0583 75.728 10.7485 76.967 10.5937 77.7909C10.541 78.206 10.541 78.6148 10.541 79.0361" stroke="black" stroke-width="3" stroke-linecap="round"/>
<path d="M78.6855 3.76745C79.5063 3.4608 81.7706 2.42934 83.6352 2.1676C85.2932 1.93489 86.9372 1.70453 93.9901 1.65033C96.8747 1.62816 99.1164 2.62758 100.981 3.4035C102.568 4.06371 104.487 4.6905 106.247 5.31464C107.821 5.8731 109.239 6.75961 110.944 7.27534C113.025 7.90466 114.3 9.33671 115.849 10.3202C117.862 11.5986 119.566 13.6732 120.858 15.1708C122.296 16.8384 124.417 18.0097 126.02 19.3013C127.734 20.683 128.654 22.8603 129.789 24.5143C131.087 26.4047 132.371 28.4357 133.455 30.1409C134.585 31.9175 135.568 33.9059 136.348 35.6653C137.163 37.5031 138.566 39.4814 139.444 41.1896C140.224 42.7079 140.839 44.2329 141.047 46.7604C141.399 51.0486 141.769 56.8272 142.131 59.1007C142.409 60.8449 142.493 63.1213 142.751 65.1424C142.993 67.046 143.317 68.9074 143.731 71.026C143.961 72.2048 144.144 73.5567 144.35 74.9474C144.542 76.2383 144.662 83.6142 144.611 94.0914C144.583 99.6836 143.943 102.565 143.167 107.257C143.011 108.251 142.909 108.66 142.856 109.178C142.803 109.695 142.803 110.308 142.493 110.94" stroke="black" stroke-width="3" stroke-linecap="round"/>
<path d="M142.349 110.637C142.349 110.679 142.349 110.722 142.349 112.441C142.349 114.159 142.349 117.553 142.37 119.408C142.405 122.5 142.562 124.644 142.84 125.781C143.133 126.976 143.076 128.288 143.227 129.378C143.628 132.293 143.848 134.284 144.126 135.829C144.282 136.696 144.575 137.544 145.004 138.508C145.355 139.299 145.39 140.115 145.69 140.845C145.974 141.538 146.246 142.3 146.483 143.03C146.736 143.811 147.187 145.082 147.597 146.734C147.814 147.61 148.046 148.386 148.496 149.499C148.819 150.273 148.947 150.787 149.075 151.129C149.161 151.302 149.288 151.471 149.548 152.032" stroke="black" stroke-width="3" stroke-linecap="round"/>
<path d="M148.776 150.264C148.861 150.691 149.203 151.375 149.418 152.061C149.628 152.728 149.632 153.432 149.911 154.118C150.184 154.791 150.404 155.574 150.661 157.471C151.477 163.492 150.576 164.23 150.469 165.278C150.267 167.265 150.234 167.959 149.807 168.687C149.282 169.583 148.779 170.442 148.157 171.344C147.529 172.255 145.791 174.332 144.537 175.48C143.874 176.087 143.251 176.487 141.776 177.535C141.02 178.072 140.423 178.415 139.695 178.823C139.016 179.203 138.41 179.745 137.616 180.088C136.807 180.438 135.967 180.902 135.259 181.266C135.066 181.373 134.854 181.501 134.49 181.566C134.126 181.632 133.617 181.632 132.964 181.889" stroke="black" stroke-width="3" stroke-linecap="round"/>
<path d="M10.7723 79.0381C10.7723 81.274 10.8617 85.9856 11.0201 87.069C11.2036 88.3237 11.1786 90.3084 11.291 93.1733C11.462 97.5315 11.2693 100.614 11.2016 101.042C11.035 102.093 11.0432 104.076 10.9084 105.691C10.7158 107.999 10.7276 111.493 10.6599 113.329C10.6005 114.94 10.6369 117.936 10.6145 119.567C10.5897 121.379 10.5014 123.395 10.4568 126.372C10.4243 128.535 9.87035 129.412 9.64487 130.451C9.33557 131.877 9.05779 132.933 8.74225 133.973C8.48868 134.809 8.15585 135.687 7.79426 136.457C7.45029 137.188 6.89367 138.526 6.21518 139.909C5.78638 140.782 5.26583 141.557 4.92794 142.325C4.5078 143.279 3.95761 143.859 3.57367 144.582C3.32652 144.942 2.87554 145.886 2.37921 147.127C2.1957 147.608 2.15101 147.786 1.96954 148.106" stroke="black" stroke-width="3" stroke-linecap="round"/>
<path d="M2.37582 146.921C2.42051 147.371 2.51124 148.091 2.62365 149.797C3.00122 155.529 2.37582 156.888 2.24107 157.888C2.14147 158.627 1.96954 159.868 1.83478 160.98C1.72761 161.864 1.6093 163.031 1.5856 168.95C1.57759 170.95 2.10497 171.655 2.28441 172.446C2.54407 173.589 3.3211 174.318 3.75108 175.065C4.13675 175.735 4.76475 176.395 5.48793 177.096C6.439 178.018 7.74415 179.15 8.57973 179.895C9.24017 180.483 10.0464 180.91 11.0384 181.43C12.5898 182.242 13.5648 182.625 14.6509 183.079C15.4039 183.393 16.23 183.53 17.134 183.779C18.0646 184.035 19.3855 184.656 20.4973 185.088C21.2306 185.372 21.964 185.607 22.9113 185.833C24.4679 186.203 25.6205 186.555 26.7933 186.623C27.7874 186.737 28.8708 186.826 31.3924 186.894C31.9423 186.917 32.121 186.961 32.5761 187.143" stroke="black" stroke-width="3" stroke-linecap="round"/>
<path d="M70.4139 134.754C70.4139 134.986 70.5458 135.716 70.7297 136.451C70.9405 137.294 71.1135 138.216 71.3124 138.949C71.5202 139.715 71.5792 140.381 71.7126 141.214C71.8358 141.983 71.913 142.78 71.996 143.695C72.0722 144.535 72.0459 145.246 72.0959 146.387C72.2938 150.906 71.913 151.772 71.7306 152.442C71.5823 152.986 71.3474 153.507 71.131 154.057C70.8721 154.716 70.6817 155.406 70.5808 156.106C70.4819 156.406 70.3809 156.673 70.331 156.939C70.314 157.073 70.314 157.205 70.1141 157.241" stroke="black" stroke-width="3" stroke-linecap="round"/>
<path d="M92.8007 134.854C92.7677 135.285 92.6348 136.084 92.5014 136.85C92.3686 137.613 92.335 138.348 92.218 139.033C92.1703 139.312 92.1681 139.715 92.1181 140.874C91.9383 145.042 92.333 145.778 92.5169 146.511C92.6722 147.131 92.8007 147.711 93.0825 148.46C93.3839 149.261 93.5323 149.941 93.8656 150.559C94.2082 151.195 94.5637 152.04 94.915 152.675C95.2874 153.348 95.4971 153.907 95.7979 154.441C95.8649 154.575 95.9309 154.707 95.9978 154.84C96.0648 154.974 96.1307 155.106 96.1987 155.242" stroke="black" stroke-width="3" stroke-linecap="round"/>
<path d="M68.9148 157.741C67.9873 157.906 66.5202 158.504 65.5703 159.022C64.7762 159.454 63.9217 159.872 63.3201 160.221C62.7835 160.533 62.2547 160.805 61.3068 161.253C60.2043 161.775 59.5903 162.27 58.9562 162.719C58.4948 163.046 57.9573 163.236 57.4401 163.553C56.9143 163.875 56.0943 164.401 55.2259 164.918C54.4884 165.357 53.8597 165.568 53.1436 165.951C52.2918 166.406 51.527 166.933 51.0273 167.251C50.456 167.613 49.962 168.133 49.5277 168.616C49.0615 169.033 48.4628 169.564 47.6968 170.115C47.5284 170.232 47.4294 170.331 47.1276 170.633" stroke="black" stroke-width="3" stroke-linecap="round"/>
<path d="M46.3281 171.608C46.0962 171.707 45.5645 172.039 45.1303 172.489C44.6312 173.005 44.0315 173.67 43.1005 174.635C42.3463 175.417 41.6668 176.135 41.1337 176.785C40.0393 178.118 39.734 178.967 39.4167 179.6C39.0768 180.279 38.6007 180.766 37.9855 181.615C37.564 182.197 36.9716 183.195 36.1701 184.496C35.6738 185.301 35.3366 186.095 34.9198 186.713C34.2897 187.647 33.5096 189.779 32.904 191.16C32.5203 192.035 32.3044 192.559 31.9381 193.441C31.4015 194.732 31.3049 196.187 30.8722 197.454C30.5395 198.429 30.5714 199.187 30.355 199.806C30.1423 200.413 30.0377 201.02 29.9053 201.637C29.7315 202.447 29.44 203.349 29.2387 204.285C29.0817 205.015 28.9064 205.618 28.7559 206.383C28.2727 208.116 28.0069 209.247 27.856 209.916C27.839 210.083 27.839 210.281 27.839 210.485" stroke="black" stroke-width="3" stroke-linecap="round"/>
<path d="M29.7788 203.743C29.6944 204.338 29.4383 205.274 29.1189 206.404C28.5621 208.375 28.2862 209.242 27.9668 210.31C27.5891 211.572 27.2621 212.486 26.9639 213.213C26.6738 213.92 26.366 214.578 26.11 215.304C25.7806 216.237 25.726 217.222 25.4488 218.225C25.2933 218.788 25.2984 220.625 25.2773 223.035C25.2676 224.137 25.1704 226.845 25.1915 230.748C25.2984 233.054 25.3829 234.502 25.6601 235.572C25.7247 235.787 25.7669 235.956 25.8105 236.386" stroke="black" stroke-width="3" stroke-linecap="round"/>
<path d="M97.6638 157.411C98.1272 157.543 99.1898 158.075 100.422 158.608C101.544 159.094 102.981 159.936 104.383 160.538C106.274 161.351 108.17 162.465 109.81 163.5C110.956 164.225 113.031 165.129 115.432 166.959C117.416 168.47 119.83 170.59 121.161 171.887C122.235 172.935 123.426 173.718 124.225 174.586C125.024 175.452 126.35 176.778 127.587 178.146C128.507 179.163 129.549 180.241 131.312 182.039C132.619 183.371 133.612 184.372 134.677 185.536C135.485 186.418 135.809 187.567 136.609 188.566C137.41 189.566 138.074 190.627 139.105 191.927C139.915 192.95 140.471 194.222 141.037 195.622C141.693 197.241 142.4 198.285 142.836 199.385C143.34 200.658 143.403 202.671 143.569 205.004C143.838 208.799 143.934 210.001 144.168 211.399C144.564 213.77 144.402 215.654 144.567 217.128C144.695 218.265 145.001 220.775 145.167 224.833C145.2 226.753 145.2 229.983 145.168 231.778C145.135 233.574 145.069 233.838 144.801 234.309" stroke="black" stroke-width="3" stroke-linecap="round"/>
<path d="M125.227 178.783C125.227 179.047 125.227 182.742 125.194 188.266C125.181 190.498 124.764 192.349 124.364 197.679C124.084 201.419 124.228 207.293 124.294 210.447C124.377 214.413 124.76 215.462 124.894 216.727C125.052 218.222 125.491 219.788 125.692 220.923C125.892 222.044 126.226 223.052 126.424 224.119C126.626 225.199 126.957 226.38 127.19 227.745C127.29 230.045 127.424 231.373 127.59 232.606C127.624 232.973 127.624 233.434 127.424 233.91" stroke="black" stroke-width="3" stroke-linecap="round"/>
<path d="M41.1392 177.585C41.271 178.18 41.9341 179.774 42.3366 181.142C42.6742 182.29 42.8689 183.636 43.3013 184.97C43.7993 186.505 43.6678 188.43 43.8016 190.061C44.0182 192.701 44.267 195.089 44.5336 196.355C44.8007 197.622 44.9341 198.948 45.4644 200.814C45.9074 202.372 45.8649 204.541 46.2973 205.909C46.7145 207.229 46.6638 209.134 46.9304 210.503C47.2317 212.048 47.263 214.064 47.5297 215.362C47.8231 216.791 47.9301 217.991 48.0959 219.587C48.1298 221.502 48.1958 223.12 48.2956 225.729C48.3296 227.943 48.3296 231.964 47.7304 235.707" stroke="black" stroke-width="3" stroke-linecap="round"/>
<path d="M56.7184 166.2C56.7843 166.663 57.0499 167.726 57.3166 168.825C57.8269 170.93 57.9128 174.445 58.1495 177.772C58.26 179.326 58.6478 180.772 58.7487 184.992C58.8475 186.233 58.9814 186.836 59.1142 187.368C59.1811 187.635 59.247 187.899 59.1152 188.17" stroke="black" stroke-width="3" stroke-linecap="round"/>
<path d="M108.649 165.001C108.649 167.244 108.781 172.052 109.048 173.252C109.354 174.633 109.38 175.715 109.647 176.947C109.886 178.054 110.047 179.77 110.213 181.637C110.313 185.104 110.447 186.894 110.48 188.724C110.513 189.433 110.579 189.696 110.647 190.367" stroke="black" stroke-width="3" stroke-linecap="round"/>
<path d="M45.1445 191.954C45.4403 192.16 45.8555 192.693 46.3156 193.14C46.8513 193.66 47.3682 194.266 47.9932 194.803C48.5262 195.26 49.0912 195.515 49.612 195.65C50.2359 195.812 50.9016 196.228 51.4682 196.482C51.9733 196.674 52.507 196.971 52.9827 197.135C53.1021 197.18 53.2197 197.238 53.519 197.388" stroke="black" stroke-width="3" stroke-linecap="round"/>
<path d="M53.519 197.388C53.6072 197.152 54.1391 196.148 54.5422 195.415C54.9175 194.733 55.6537 194.184 56.3971 193.426C56.84 192.975 57.0506 192.313 57.2751 191.777C57.4883 191.268 57.7936 190.797 58.0912 190.292C58.1803 190.173 58.2979 190.084 58.4466 189.951C58.5954 189.817 58.7718 189.641 59.0427 189.37" stroke="black" stroke-width="3" stroke-linecap="round"/>
<path d="M108.666 189.192C109.111 189.843 109.76 191.084 110.194 191.937C110.599 192.731 111.779 193.908 112.406 194.373C112.863 194.712 113.415 195.098 113.935 195.531C114.603 196.109 115.198 196.704 115.435 196.911C115.555 197.001 115.672 197.06 115.793 197.121" stroke="black" stroke-width="3" stroke-linecap="round"/>
<path d="M116.484 197.566C116.837 197.301 118.727 196.355 120.104 195.653C120.764 195.316 121.263 195.132 121.694 194.732C122.394 194.083 122.688 193.441 123.06 192.699C123.135 192.519 123.194 192.372 123.268 192.238C123.343 192.103 123.431 191.986 123.522 191.686" stroke="black" stroke-width="3" stroke-linecap="round"/>
<path d="M58.4334 189.412C59.2867 189.412 61.5782 189.639 62.9021 189.784C63.4769 189.848 66.3781 189.928 71.0446 190.07C76.4321 190.234 77.8667 191.301 80.0447 191.505C81.2573 191.618 82.5117 191.762 83.6901 191.849C84.1831 191.885 88.0444 191.992 93.8334 191.936C97.3803 191.901 98.3976 191.535 100.174 191.42C101.694 191.321 102.698 191.019 103.875 190.675C105.072 190.325 106.026 190.272 106.944 190.101C107.402 189.987 107.92 189.814 108.492 189.642C108.78 189.584 109.064 189.584 109.356 189.584" stroke="black" stroke-width="3" stroke-linecap="round"/>
<path d="M65.4869 211.605C66.5724 211.718 69.9908 211.949 74.0612 211.92C75.5203 211.91 75.7472 211.835 80.4059 211.778C85.0647 211.72 94.1482 211.663 98.9412 211.606C103.734 211.548 103.961 211.491 104.711 211.261" stroke="black" stroke-width="3" stroke-linecap="round"/>
<path d="M66.003 212.465C66.0598 213.093 66.175 218.324 66.3462 221.464C66.4187 222.793 66.7462 224.043 66.9199 225.449C67.0504 226.504 67.3793 227.711 67.75 228.976C68.1147 230.221 68.9242 231.041 70.0699 231.616C71.2008 232.183 73.552 234.014 76.2891 235.4C77.354 235.939 78.4413 236.261 79.4468 236.521C80.5937 236.817 84.7206 236.894 87.4723 237.037C90.0247 237.169 91.0584 236.554 91.9771 236.207C92.9147 235.853 93.9831 235.635 94.9301 235.318C96.1372 234.915 97.4789 234.259 98.5997 233.942C99.8925 233.455 100.693 232.996 101.697 232.395C101.9 232.194 102.014 231.967 102.131 231.389" stroke="black" stroke-width="3" stroke-linecap="round"/>
<path d="M104.367 212.637C104.367 212.864 104.367 216.728 104.396 222.519C104.416 226.616 104.312 230.295 104.11 231.213C104.025 231.444 103.855 231.671 103.738 231.902C103.622 232.132 103.566 232.359 102.991 232.249" stroke="black" stroke-width="3" stroke-linecap="round"/>
<path d="M106.672 168.135C106.283 168.627 105.456 169.496 104.879 170.082C103.989 170.987 103.722 171.291 102.868 171.971C101.908 172.734 101.288 172.777 100.751 172.953C100.306 173.099 99.8431 173.15 97.354 173.479C96.39 173.606 95.7794 173.727 95.1689 173.923C94.5829 174.112 93.5729 174.222 92.9709 174.429C92.7114 174.518 92.4134 174.553 91.7472 174.707C90.3318 175.034 89.1334 175.193 88.6595 175.203C88.3069 175.211 86.8533 175.255 84.8007 175.245C83.6211 175.239 82.9641 175.111 82.4054 175.049C82.0133 175.005 81.3142 174.864 79.5297 174.719C78.2178 174.613 76.0699 174.616 74.9035 174.585C73.0993 174.536 71.7399 174.43 71.045 174.378C70.1499 174.311 69.1571 174.285 68.733 174.203C68.3832 174.135 68.0625 174.017 67.2205 173.853C64.798 173.381 64.2873 173.316 63.6988 173.233C62.7896 173.105 62.0399 172.718 61.541 172.573C61.1396 172.456 60.6965 171.935 60.2514 171.644C59.9307 171.335 59.6837 171.046 59.4871 170.696C59.4354 170.612 59.3741 170.551 59.311 170.488" stroke="black" stroke-width="3" stroke-linecap="round"/>
<path d="M104.691 161.821C104.279 161.841 103.295 162.25 102.012 162.923C101.303 163.294 100.382 163.677 99.7301 163.965C98.7927 164.381 98.1926 164.708 97.5014 165.008C97.0565 165.201 96.0109 165.43 95.138 165.597C94.7669 165.668 94.1908 165.782 93.6417 165.865C93.0507 165.955 92.2728 166.05 91.2705 166.123C90.1765 166.202 89.2814 166.36 88.3085 166.433C87.9074 166.462 86.8081 166.751 85.3436 166.999C84.6601 167.114 84.406 167.103 83.7711 167.134C82.2799 167.207 81.1663 167.124 80.2451 167.083C79.447 167.048 77.9755 167.042 77.1768 167.011C76.0417 166.967 75.4718 166.754 74.9763 166.619C74.1141 166.385 73.2443 166.32 72.7983 166.268C72.7052 166.257 72.603 166.237 71.8251 166.227C71.0472 166.216 69.5966 166.216 68.7983 166.206C67.5645 166.19 66.7847 165.99 66.2879 165.958C65.7841 165.927 65.3806 165.783 64.9463 165.629C64.5471 165.487 64.1214 165.33 63.6877 165.205C63.1013 165.038 62.6764 164.629 62.3254 164.36C61.8709 164.112 61.541 163.865 61.2828 163.607C61.2104 163.534 61.1286 163.452 60.9825 163.368" stroke="black" stroke-width="3" stroke-linecap="round"/>
</svg>
