<svg viewBox="0 0 102 70" fill="none" xmlns="http://www.w3.org/2000/svg">
<rect x="29.4932" y="3.5" width="44" height="30" rx="4.5" fill="#DED29A" stroke="black"/>
<rect x="29.4932" y="9.5" width="44" height="17" fill="#865252" stroke="black"/>
<path d="M51.493 11.5C54.648 11.5 57.2928 14.3593 57.2928 18C57.2928 21.6407 54.648 24.5 51.493 24.5C48.3381 24.4999 45.6932 21.6406 45.6932 18C45.6932 14.3594 48.3381 11.5001 51.493 11.5Z" fill="white" stroke="black"/>
<path d="M51.4932 13.5C53.6541 13.5 55.4932 15.4639 55.4932 18C55.4932 20.5361 53.6541 22.5 51.4932 22.5C49.3323 22.5 47.4932 20.5361 47.4932 18C47.4932 15.4639 49.3323 13.5 51.4932 13.5Z" fill="#BDB9B9" stroke="black"/>
<rect x="34.3932" width="5.4" height="3" fill="#DED29A"/>
<rect x="63.1932" y="6" width="3.6" height="2" fill="#FFFCFC"/>
<rect x="63.1932" y="6" width="3.6" height="2" stroke="black"/>
<rect x="66.7932" y="6" width="1.8" height="2" fill="#121111"/>
<path d="M14.4774 68.0339C14.6818 67.7843 14.9998 67.3297 15.8188 66.5212C16.2035 66.1415 16.6406 65.9158 17.2662 65.4269C18.2205 64.6813 18.983 63.7553 19.6151 63.1355C19.9932 62.7648 20.5815 62.3619 21.5615 61.417C22.1157 60.8828 22.4521 60.5378 23.0329 60.184C23.5572 59.8646 24.138 59.329 24.9335 58.8751C25.3056 58.6627 25.861 58.2871 26.6028 57.7401C28.2745 56.5075 29.3574 55.5468 29.6873 55.2395C30.1042 54.8511 30.4964 54.6115 31.0434 54.2929C31.8101 53.8463 33.1793 53.0883 33.893 52.663C34.2807 52.4688 34.6 52.3546 35.1992 52.3205C35.7082 52.3088 36.6333 52.3088 37.5864 52.3088" stroke="black" stroke-width="3" stroke-linecap="round"/>
<path d="M36.4583 52.5994C37.4066 52.5994 39.3736 52.6897 40.0224 52.7474C40.6414 52.8026 41.6271 53.1683 42.1542 53.2373C42.6863 53.307 43.4047 53.4417 44.0788 53.6243C45.0064 53.8755 45.5706 53.8752 46.1077 54.0458C47.1705 54.3834 48.3054 54.8091 49.24 55.1506C49.7982 55.3546 50.2211 55.4477 51.3236 55.7998C52.5934 56.2054 53.1159 56.223 53.481 56.3023C53.8866 56.3904 54.3233 56.5416 54.8251 56.6329C55.2446 56.7092 55.7358 56.8383 56.2154 56.9631C56.3299 56.9976 56.4428 57.0202 56.5573 57.0544C56.6718 57.0886 56.7846 57.1337 56.9692 57.1802" stroke="black" stroke-width="3" stroke-linecap="round"/>
<path d="M56.559 57.4537C56.7853 57.4762 57.5572 57.5672 58.4128 57.7039C59.0064 57.7988 59.4524 57.7497 60.0967 57.7839C62.9114 57.9332 63.5532 57.7271 64.1685 57.6137C64.6446 57.5258 66.0965 57.4537 67.1426 57.3176C67.7354 57.2405 68.6768 56.9997 69.3875 56.8841C70.0767 56.7721 70.4818 56.6114 71.0161 56.5085C72.2694 56.2671 72.7147 56.1328 73.795 55.8935C74.8193 55.6666 75.6095 55.6993 76.8371 55.6648C77.4787 55.6077 77.9566 55.5626 78.4222 55.4942C78.6847 55.4709 79.0006 55.4709 79.3261 55.4709" stroke="black" stroke-width="3" stroke-linecap="round"/>
<path d="M79.2577 55.0607C79.5756 55.0607 80.0303 55.1058 80.6449 55.1858C81.7318 55.3273 82.4683 55.4244 82.9818 55.5277C83.598 55.6516 84.0641 55.6979 85.4349 55.8012C86.371 55.8717 88.0883 55.8128 89.028 55.8241C90.9195 55.8468 92.5652 55.7909 92.9302 55.6877C93.3323 55.574 94.608 55.2453 95.3916 55.1178C95.7658 55.0569 96.2106 54.7886 96.6902 54.6963C97.144 54.609 97.4878 54.4003 97.9438 54.3319C98.0454 54.3167 98.0812 54.1965 98.1045 54.1049C98.1496 53.9272 98.06 53.7173 97.9123 53.5012C97.6208 53.0748 97.0365 52.8743 96.6137 52.6572C96.1544 52.4214 95.7594 52.1222 95.315 51.8484C94.8283 51.5485 94.392 51.3701 94.0269 51.2778C93.6206 51.1751 93.2297 50.9367 92.8079 50.8221C92.4126 50.7148 91.9991 50.6851 91.5659 50.617C90.8222 50.5002 89.7661 50.5032 89.2417 50.4119C88.9692 50.3645 88.7166 50.3207 88.3426 50.2526C87.6768 50.1315 86.0611 50.0697 84.1929 50.0585C83.1756 50.0523 82.724 49.8879 81.4052 49.8533C80.4002 49.827 79.3507 49.706 78.8721 49.637C78.4837 49.5228 78.2103 49.5002 77.9494 49.466C77.7788 49.4544 77.5307 49.4544 77.275 49.4544" stroke="black" stroke-width="3" stroke-linecap="round"/>
<path d="M77.275 49.4544C77.1389 49.5898 76.9113 50.0451 76.6607 50.399C76.431 50.7233 76.1373 51.1158 75.8177 51.4361C75.4857 51.7688 74.9983 51.7557 74.5532 51.8925C74.1476 52.0171 73.4955 51.9841 72.5295 52.0408C69.8512 52.1982 69.3468 51.8939 68.8218 51.8361C68.4316 51.7932 68.0697 51.6887 67.682 51.6197C67.17 51.5285 66.4097 51.4371 65.2231 51.3124C64.5782 51.2446 64.0359 51.1185 63.6141 51.084C63.0782 51.0402 62.3499 50.9367 61.939 50.8334C61.3596 50.6879 60.6639 50.5716 60.0264 50.5032C58.6562 50.3563 58.0426 50.0246 57.3367 49.8879C56.7272 49.7698 56.3101 49.6828 55.7068 49.546C55.2448 49.4414 54.7841 49.3409 54.3161 49.2951C53.5885 49.2239 53.0967 49.0675 52.7317 49.0329C52.3325 48.9952 51.3027 48.8391 50.6009 48.7824C50.1115 48.7428 49.1587 48.7024 48.3126 48.6456C46.9679 48.5554 46.3309 48.5656 45.815 48.4976C45.3929 48.4063 44.1266 48.3605 43.2966 48.4173C43.205 48.4289 43.1148 48.4289 42.9534 48.4973" stroke="black" stroke-width="3" stroke-linecap="round"/>
<path d="M2 57.0605C2.22699 57.0154 2.72609 56.8335 3.45593 56.5829C3.95907 56.4102 4.29996 56.2633 4.82298 55.9683C6.02368 55.291 6.62316 54.8973 7.18276 54.5548C7.66178 54.2615 8.12866 53.962 8.82295 53.3142C9.23687 52.928 9.63279 52.5044 10.0546 52.2753C10.4143 52.08 10.7267 51.7974 11.0351 51.4781C11.358 51.1437 11.8206 50.8854 12.1744 50.6348C12.5133 50.3948 13.5011 49.7504 14.4296 49.0859C14.8074 48.8155 15.034 48.4473 15.3878 48.2302C15.7676 47.9972 16.2646 47.7636 16.7432 47.5578C17.1651 47.3764 17.5185 47.0799 17.9171 46.8174C18.3059 46.5613 19.6284 45.8985 20.6967 45.3819C21.1848 45.146 21.4607 44.8005 21.7691 44.5044C22.0818 44.2042 22.4412 43.9349 22.851 43.5818C23.322 43.176 23.7169 42.8861 24.0253 42.6468C24.3378 42.4043 24.8546 42.0219 25.3694 41.6103C25.7555 41.3017 26.1099 41.0634 26.5543 40.7215C27.0585 40.3337 27.5456 40.1062 28.0126 39.8211C28.6268 39.4461 29.1181 39.3309 29.5854 39.0803C29.9956 38.8604 30.4623 38.5788 30.8164 38.2715C31.2366 37.9069 31.9869 37.6914 32.5482 37.3936C32.9654 37.1724 33.5389 37.0514 33.9273 37.0169C34.3215 36.9819 34.7245 36.8463 35.1121 36.6983C35.5749 36.5216 36.0454 36.4812 37.8107 36.4245C39.2553 36.3781 42.0537 36.4129 43.54 36.4242C45.3901 36.4812 46.3432 36.5715 47.0987 36.6405C47.2812 36.6631 47.5068 36.7082 47.7393 36.7547" stroke="black" stroke-width="3" stroke-linecap="round"/>
<path d="M47.0727 36.6864C47.3906 36.845 47.8453 37.1636 48.3016 37.4262C48.7573 37.6883 49.4164 37.9608 50.0898 38.2804C50.7744 38.6053 51.1503 38.8961 51.5266 39.0219C51.9956 39.1787 52.5163 39.5566 53.1894 39.8304C53.7103 40.0423 54.1804 40.3319 55.0005 40.7527C55.5432 41.0312 56.2069 41.5598 56.8249 41.9498C57.3273 42.2669 57.964 42.6783 58.6019 43.0776C59.1268 43.4062 59.7635 43.5452 60.3344 43.7391C60.8922 43.9285 61.4727 44.1373 62.5882 44.4111C63.4182 44.6149 64.0475 44.821 64.6984 45.0155C65.222 45.172 65.6446 45.2545 66.0097 45.369C66.3816 45.4857 66.7837 45.6879 67.172 45.8473C67.5778 46.0137 68.0143 46.2349 68.4365 46.3942C68.9866 46.6018 69.6306 46.8489 70.1799 47.0099C70.6313 47.1422 71.0458 47.2153 71.5244 47.3401C71.9296 47.4457 72.39 47.5558 72.9486 47.7503C73.4387 47.921 74.0308 48.1944 74.532 48.4672C75.5504 49.0215 75.8768 49.425 76.1971 49.6756C76.2659 49.7443 76.3335 49.812 76.3346 49.8018C76.3356 49.7915 76.2679 49.7012 76.1982 49.4715" stroke="black" stroke-width="3" stroke-linecap="round"/>
<path d="M51.4483 38.0538C51.9912 37.9861 54.2597 37.8487 55.3772 37.7919C56.2781 37.7462 56.7784 37.7119 58.4825 37.3718C60.1985 37.0293 61.3305 36.8026 62.1916 36.4823C62.7582 36.2716 63.2503 36.1627 63.9688 36.0259C64.5437 35.9166 65.4149 35.866 65.9635 35.7979C66.5369 35.7268 67.079 35.6157 67.5251 35.5357C67.9863 35.453 68.4477 35.4106 68.8809 35.3193C69.3363 35.2234 70.2882 35.1823 70.9774 35.1255C71.5923 35.0749 72.3639 35.0455 73.3437 34.9888C75.8739 34.8422 76.2419 35.0455 76.607 35.2838C76.9946 35.4551 77.359 35.5925 77.598 35.6263C77.7016 35.6602 77.7693 35.7279 77.839 35.7976" stroke="black" stroke-width="3" stroke-linecap="round"/>
<path d="M73.2583 43.3866C73.6213 43.137 74.8444 42.4568 75.8078 42.077C76.7276 41.7143 77.1307 41.7006 77.8018 41.462C78.2685 41.296 78.613 41.1762 79.2235 40.9277C81.9211 39.8296 82.5319 39.536 83.1124 39.3309C83.8454 39.0719 84.5584 38.8072 85.13 38.6807C85.5106 38.5965 85.882 38.5105 86.3832 38.4527C87.2429 38.3536 88.3885 38.3505 89.0605 38.3159C89.5081 38.293 89.7121 37.8049 89.962 37.4285C90.1262 37.1811 90.35 37.0289 90.4525 36.8812C90.5023 36.8095 90.4874 36.711 90.4536 36.6306C90.309 36.2876 89.9869 36.0273 89.6571 35.7302C89.2854 35.3955 88.532 35.4557 87.3496 35.3422C84.3942 35.0585 83.8364 35.3873 83.3558 35.4554C82.6185 35.5597 81.6705 35.7975 81.2021 35.8656C80.8185 35.9213 80.1007 36.0027 79.5383 36.1274C79.1188 36.2205 78.7524 36.2529 78.0469 36.4577C77.615 36.583 77.1581 36.6631 76.4515 36.8679C75.7892 37.0598 74.9019 37.005 74.4222 37.062C73.9207 37.1217 73.5563 37.4152 73.1007 37.5745C72.5618 37.7629 72.1438 37.8254 71.7555 37.9734C71.348 38.1287 70.8899 38.304 70.4568 38.3953C69.9483 38.5024 69.4542 38.7142 68.7828 38.9077C67.9422 39.1499 66.8794 39.4211 66.1283 39.75C65.232 40.1425 64.5999 40.1718 63.6674 40.2641C63.1261 40.3177 62.5953 40.5821 62.0022 40.7991C61.4987 40.9834 61.0679 41.2206 60.6229 41.5167C60.2654 41.7544 59.5665 41.8141 58.9256 41.9843C58.5629 42.0192 58.2634 42.0643 58.0703 42.1327C57.9674 42.1559 57.8546 42.1559 57.7383 42.1559" stroke="black" stroke-width="3" stroke-linecap="round"/>
<path d="M64.8488 44.5489C65.0757 44.5263 65.4395 44.4805 65.8839 44.4012C66.4043 44.3083 66.8069 44.1852 67.1945 44.1161C67.6796 44.0297 68.1729 43.8666 69.073 43.7856C69.6623 43.7325 70.2923 43.5917 70.8742 43.535C71.7044 43.454 72.2067 43.4099 72.9817 43.3073C73.7652 43.2036 74.3043 43.1131 74.8061 43.0564C75.2183 43.0098 75.6717 42.908 76.0713 42.8513C76.5374 42.7851 76.9939 42.6578 77.4951 42.5552C78.0297 42.4459 78.4748 42.3611 78.9199 42.2476C79.2954 42.1518 79.7506 42.0192 80.3659 41.9057C81.2425 41.7441 81.8017 41.8141 82.3606 41.7574C82.9184 41.7007 83.3291 41.6774 83.8302 41.6206C84.762 41.5151 85.1751 41.4271 85.654 41.3472C86.2195 41.2527 87.5817 41.1988 88.4917 41.1308C88.9001 41.1002 89.3456 40.9486 89.7452 40.8573C89.9601 40.8082 90.1674 40.766 90.902 40.7318C94.0612 40.5848 94.5184 40.6518 94.9868 40.5838C96.1653 40.4126 98.1885 40.5602 98.5536 40.606C98.9695 40.6582 99.3508 40.9021 99.7046 41.0159C100.051 41.1273 100.081 41.6528 100.184 42.0404C100.308 42.5047 100.014 42.7932 99.8554 42.9299C99.4034 43.3196 98.808 43.0899 97.8522 43.1357C97.3306 43.1607 96.8936 43.3182 96.4485 43.3976C95.9294 43.4901 95.2979 43.5685 94.9328 43.6598C94.5198 43.763 93.3001 44.0006 92.5286 44.1496C92.032 44.2456 91.2668 44.3657 90.6378 44.5595C89.8369 44.8063 89.146 44.9578 88.6205 45.1181C88.0475 45.2929 87.6405 45.3461 86.5838 45.4828C85.438 45.6311 84.6582 45.5744 84.0056 45.6879C83.5644 45.7647 82.9708 45.8698 82.2512 45.9276C81.7359 45.9689 81.1918 46.0749 80.5875 46.1894C80.0484 46.2916 79.5961 46.44 79.0717 46.588C78.5521 46.7347 78.092 46.8502 77.6243 46.9415C77.1081 47.0422 76.7013 47.1921 76.2347 47.3285C75.3332 47.6707 75.014 47.7848 74.8321 47.8416C74.7405 47.8758 74.6502 47.9209 74.4205 48.0358" stroke="black" stroke-width="3" stroke-linecap="round"/>
</svg>
